<svg width="159" height="35" viewBox="0 0 159 35" fill="none" xmlns="http://www.w3.org/2000/svg">
<g clip-path="url(#clip0_7295_442060)">
<path d="M33.7087 7.9412C31.1367 6.76058 28.4204 5.92378 25.6299 5.45239C25.2482 6.1303 24.9053 6.82935 24.6028 7.54615C21.636 7.11164 18.6217 7.11164 15.6549 7.54615C15.3784 6.89432 14.9636 6.06472 14.6278 5.45239C11.8225 5.91467 9.09197 6.75176 6.50956 7.9412C1.95979 14.3907 -0.0900936 22.2744 0.741834 30.1232C3.7311 32.3204 7.0702 33.9967 10.6181 35.0811C11.4235 34.0077 12.1309 32.864 12.7316 31.6639C11.578 31.2351 10.467 30.6995 9.41317 30.064L10.223 29.4319C13.3109 30.8915 16.6838 31.6485 20.0993 31.6485C23.5147 31.6485 26.8876 30.8915 29.9755 29.4319C30.252 29.6492 30.5088 29.8664 30.8051 30.064C29.7355 30.6959 28.6117 31.2313 27.4472 31.6639C28.0673 32.8659 28.7945 34.0096 29.6199 35.0811C33.1678 33.9967 36.5069 32.3204 39.4962 30.1232C40.3206 22.2721 38.2638 14.3888 33.7087 7.9412ZM13.6402 25.7184C13.1497 25.6907 12.6694 25.5664 12.227 25.3527C11.7846 25.139 11.3887 24.8401 11.0621 24.4731C10.7355 24.1061 10.4845 23.6782 10.3235 23.214C10.1626 22.7498 10.0949 22.2584 10.1243 21.7679C10.0922 21.2769 10.1581 20.7844 10.318 20.3191C10.4779 19.8537 10.7288 19.4248 11.0559 19.0572C11.383 18.6897 11.78 18.3908 12.2236 18.178C12.6673 17.9651 13.1488 17.8426 13.6402 17.8174C14.1325 17.8399 14.6153 17.9607 15.0603 18.1727C15.5052 18.3846 15.9032 18.6835 16.2308 19.0516C16.5585 19.4198 16.8091 19.8497 16.968 20.3162C17.127 20.7827 17.1909 21.2763 17.1561 21.7679C17.194 22.7452 16.8468 23.6982 16.1893 24.4222C15.5319 25.1462 14.6165 25.5832 13.6402 25.6394V25.7184ZM26.6176 25.7184C25.6288 25.6573 24.7042 25.2077 24.0456 24.4677C23.3869 23.7276 23.0476 22.7572 23.1016 21.7679C23.0723 21.2775 23.14 20.7861 23.3009 20.3219C23.4618 19.8577 23.7128 19.4298 24.0395 19.0628C24.3661 18.6958 24.762 18.3968 25.2044 18.1831C25.6468 17.9694 26.127 17.8452 26.6176 17.8174C27.1099 17.8399 27.5927 17.9607 28.0376 18.1727C28.4825 18.3846 28.8806 18.6835 29.2082 19.0516C29.5358 19.4198 29.7865 19.8497 29.9454 20.3162C30.1043 20.7827 30.1683 21.2763 30.1335 21.7679C30.1765 22.7465 29.8312 23.7024 29.1726 24.4276C28.5141 25.1527 27.5958 25.5883 26.6176 25.6394V25.7184Z" fill="black"/>
<path d="M53.165 11.6544H61.5598C63.3194 11.6048 65.0696 11.9279 66.6955 12.6025C67.9912 13.1768 69.0852 14.1263 69.8361 15.3283C70.5519 16.5187 70.9086 17.8905 70.8633 19.2788C70.8965 20.6737 70.5187 22.0476 69.7769 23.2293C68.9769 24.454 67.8278 25.4105 66.4782 25.9749C64.7258 26.6953 62.8414 27.0386 60.9475 26.9823H53.165V11.6544ZM60.8685 22.8935C62.0093 22.9738 63.1362 22.6052 64.0091 21.8664C64.3794 21.5073 64.6681 21.0727 64.8556 20.5921C65.043 20.1116 65.1249 19.5963 65.0955 19.0813C65.12 18.6037 65.0468 18.1262 64.8804 17.6779C64.7139 17.2296 64.4578 16.8199 64.1277 16.474C63.7268 16.1166 63.2574 15.8447 62.748 15.6749C62.2385 15.5051 61.6998 15.441 61.1648 15.4863H58.5377V22.8935H60.8685Z" fill="black"/>
<path d="M83.96 26.7062C82.8518 26.4275 81.7927 25.9813 80.8193 25.3828V21.8076C81.662 22.4567 82.6206 22.9394 83.6439 23.2297C84.7604 23.5586 85.917 23.7314 87.0809 23.7433C87.4794 23.7683 87.8782 23.7007 88.2463 23.5458C88.5228 23.4075 88.6413 23.2495 88.6413 23.052C88.648 22.8552 88.577 22.6636 88.4438 22.5187C88.1926 22.3349 87.9016 22.2131 87.5944 22.1631L85.0069 21.5705C83.8508 21.3888 82.7654 20.8974 81.8662 20.1484C81.55 19.8342 81.3024 19.4578 81.1392 19.043C80.976 18.6282 80.9007 18.184 80.9181 17.7386C80.9104 16.9355 81.2068 16.1593 81.7477 15.5658C82.3802 14.8975 83.1772 14.4071 84.0587 14.1436C85.2023 13.7847 86.396 13.6113 87.5944 13.63C88.7127 13.6229 89.8275 13.7556 90.9128 14.0251C91.7862 14.2312 92.6246 14.564 93.4017 15.0127V18.3311C92.6713 17.8915 91.8881 17.5464 91.0709 17.304C90.1809 17.0733 89.2644 16.9604 88.345 16.9682C87.0019 16.9682 86.3698 17.1855 86.3698 17.6398C86.3685 17.744 86.3977 17.8463 86.4539 17.934C86.51 18.0218 86.5907 18.0912 86.6858 18.1336C87.0547 18.286 87.4387 18.3985 87.8315 18.4694L89.9845 18.8447C91.1273 18.9842 92.2118 19.4276 93.1251 20.1286C93.4828 20.4778 93.7601 20.9009 93.9375 21.3682C94.1149 21.8356 94.1882 22.3361 94.1523 22.8347C94.1642 23.4549 94.0137 24.0674 93.7157 24.6114C93.4177 25.1554 92.9826 25.612 92.4535 25.9358C90.964 26.8405 89.2359 27.2743 87.4957 27.1802C86.3021 27.1688 85.1145 27.0095 83.96 26.7062Z" fill="black"/>
<path d="M99.4455 26.2515C98.3038 25.7154 97.338 24.8659 96.6604 23.8021C96.0389 22.7428 95.7179 21.5341 95.732 20.306C95.7092 19.0838 96.0458 17.8819 96.6999 16.8493C97.3975 15.79 98.3848 14.9535 99.5443 14.4395C100.952 13.8316 102.475 13.5352 104.008 13.5704C105.893 13.5025 107.757 13.9754 109.381 14.9333V18.8838C108.835 18.5294 108.244 18.2503 107.623 18.0542C106.934 17.8309 106.214 17.7175 105.49 17.7184C104.395 17.667 103.308 17.92 102.349 18.4492C102.013 18.6434 101.733 18.9227 101.539 19.259C101.345 19.5953 101.243 19.9768 101.243 20.3652C101.243 20.7536 101.345 21.1351 101.539 21.4714C101.733 21.8078 102.013 22.0871 102.349 22.2812C103.322 22.8317 104.434 23.0858 105.549 23.012C106.264 23.0121 106.975 22.9124 107.663 22.7158C108.289 22.5292 108.893 22.2707 109.46 21.9454V25.7576C107.795 26.727 105.895 27.2191 103.969 27.1798C102.41 27.2163 100.864 26.8989 99.4455 26.2515Z" fill="black"/>
<path d="M115.01 26.2518C113.846 25.716 112.86 24.8595 112.166 23.7827C111.517 22.7258 111.182 21.5067 111.198 20.2668C111.182 19.0428 111.525 17.841 112.185 16.8101C112.883 15.7676 113.862 14.9454 115.01 14.4398C117.839 13.2818 121.01 13.2818 123.839 14.4398C124.991 14.9397 125.972 15.7631 126.664 16.8101C127.314 17.8446 127.65 19.0453 127.632 20.2668C127.64 21.5056 127.305 22.7225 126.664 23.7827C125.973 24.8545 124.994 25.7102 123.839 26.2518C122.448 26.8507 120.949 27.1596 119.435 27.1596C117.92 27.1596 116.421 26.8507 115.03 26.2518H115.01ZM121.548 22.4396C121.816 22.1635 122.025 21.8351 122.161 21.4749C122.297 21.1147 122.357 20.7303 122.338 20.3458C122.346 19.9804 122.28 19.6173 122.144 19.2779C122.008 18.9386 121.806 18.63 121.548 18.3706C120.963 17.85 120.197 17.5804 119.415 17.62C118.621 17.5785 117.841 17.8476 117.242 18.3706C116.73 18.8997 116.446 19.6092 116.452 20.3458C116.439 20.7297 116.502 21.1125 116.637 21.4719C116.773 21.8313 116.978 22.1602 117.242 22.4396C117.535 22.7057 117.878 22.9109 118.251 23.0431C118.624 23.1754 119.02 23.2321 119.415 23.2099C119.804 23.2301 120.193 23.1724 120.559 23.0401C120.926 22.9078 121.262 22.7036 121.548 22.4396Z" fill="black"/>
<path d="M140.826 14.3607V19.0223C140.18 18.6462 139.44 18.4612 138.693 18.4889C138.203 18.4564 137.713 18.5316 137.255 18.709C136.798 18.8865 136.385 19.1619 136.046 19.5161C135.358 20.4498 135.029 21.5993 135.117 22.7555V26.706H129.824V14.1434H134.999V18.0939C135.158 16.9087 135.636 15.789 136.382 14.8545C136.696 14.5189 137.08 14.2552 137.506 14.0813C137.932 13.9075 138.391 13.8276 138.851 13.8471C139.544 13.8294 140.229 14.0074 140.826 14.3607Z" fill="black"/>
<path d="M158.604 11.22V26.7257H153.31V23.9011C152.925 24.8995 152.234 25.7501 151.335 26.3306C150.308 26.9146 149.138 27.2018 147.957 27.1602C146.834 27.1931 145.727 26.8906 144.777 26.2911C143.918 25.6839 143.237 24.8589 142.802 23.9011C142.289 22.8274 142.019 21.6539 142.012 20.4641C141.987 19.2329 142.258 18.0136 142.802 16.9087C143.298 15.8966 144.072 15.0469 145.034 14.4594C146.011 13.8531 147.143 13.5443 148.293 13.5705C149.38 13.4822 150.465 13.756 151.38 14.3491C152.294 14.9422 152.987 15.8214 153.35 16.8494V11.22H158.604ZM152.52 22.3406C152.781 22.0828 152.987 21.775 153.126 21.4356C153.266 21.0962 153.335 20.7322 153.33 20.3654C153.35 19.9985 153.289 19.6317 153.153 19.2906C153.016 18.9495 152.807 18.6422 152.54 18.3901C151.955 17.8696 151.189 17.6 150.407 17.6395C150.018 17.6204 149.629 17.6787 149.263 17.8109C148.897 17.9432 148.56 18.1467 148.273 18.4099C148.008 18.6635 147.8 18.9711 147.664 19.3118C147.528 19.6526 147.466 20.0185 147.483 20.3851C147.472 20.751 147.537 21.1151 147.673 21.4549C147.809 21.7948 148.013 22.103 148.273 22.3604C148.866 22.8642 149.619 23.1408 150.397 23.1408C151.175 23.1408 151.927 22.8642 152.52 22.3604V22.3406Z" fill="black"/>
<path d="M75.7417 14.8937C77.258 14.8937 78.4873 13.7882 78.4873 12.4246C78.4873 11.061 77.258 9.95557 75.7417 9.95557C74.2253 9.95557 72.9961 11.061 72.9961 12.4246C72.9961 13.7882 74.2253 14.8937 75.7417 14.8937Z" fill="black"/>
<path d="M78.4873 16.5923C77.6196 16.964 76.6856 17.1556 75.7417 17.1556C74.7978 17.1556 73.8637 16.964 72.9961 16.5923V26.7253H78.4873V16.5923Z" fill="black"/>
</g>
<defs>
<clipPath id="clip0_7295_442060">
<rect width="158" height="29.6287" fill="white" transform="translate(0.758789 5.14136)"/>
</clipPath>
</defs>
</svg>
