<svg width="100" height="42" viewBox="0 0 100 42" fill="none" xmlns="http://www.w3.org/2000/svg">
<g clip-path="url(#clip0_7295_442430)">
<path d="M0.325195 6.73V34.451L3.8921 34.462V21.2609H12.4921V17.7716H3.8921V10.2176H15.0924V6.72827L0.325195 6.73Z" fill="black"/>
<path d="M21.5132 12.3568C22.798 12.3568 23.8395 11.3153 23.8395 10.0306C23.8395 8.74584 22.798 7.70435 21.5132 7.70435C20.2286 7.70435 19.187 8.74584 19.187 10.0306C19.187 11.3153 20.2286 12.3568 21.5132 12.3568Z" fill="black"/>
<path d="M19.6982 15.8464V34.4564H23.2651V15.8464H19.6982Z" fill="black"/>
<path fill-rule="evenodd" clip-rule="evenodd" d="M36.4947 15.3037C31.7581 15.3037 28.4526 19.3097 28.4526 24.0658C28.4526 28.8221 31.7581 32.828 36.4947 32.828C38.6633 32.828 40.4503 31.9884 41.751 30.6218V33.0994C41.751 36.1827 39.329 38.7599 36.168 38.7599C35.0319 38.7599 33.903 38.3195 33.0036 37.6996L31.2164 40.795C32.6438 41.7152 34.3436 42.2492 36.168 42.2492C41.2214 42.2492 45.3178 38.1527 45.3178 33.0994V15.8465H41.751V17.51C40.4503 16.1432 38.6633 15.3037 36.4947 15.3037ZM32.0195 24.0658C32.0195 21.1136 34.2778 18.7931 36.8825 18.7931C39.4873 18.7931 41.7455 21.1136 41.7455 24.0658C41.7455 27.0181 39.4873 29.3387 36.8825 29.3387C34.2778 29.3387 32.0195 27.0181 32.0195 24.0658Z" fill="black"/>
<path d="M58.1705 18.7931C56.0614 18.7931 54.3516 20.5803 54.3516 22.6895V34.4564H50.7847V15.8465H54.3516V17.5513C55.3967 16.2002 56.9364 15.3037 58.9458 15.3037C61.4452 15.3037 63.3634 16.5451 64.4744 18.4449C65.7099 16.6099 67.7251 15.3037 70.1506 15.3037C74.2103 15.3037 76.7371 18.579 76.761 22.6313C76.761 22.6435 76.761 22.6558 76.761 22.6681V22.6688V22.6694V22.6701C76.761 22.6765 76.761 22.683 76.761 22.6895V34.4564H73.1941V22.6895C73.1941 20.5803 71.4843 18.7931 69.3752 18.7931C67.266 18.7931 65.5563 20.5803 65.5563 22.6895V34.4564H61.9894V22.6895C61.9894 20.5803 60.2796 18.7931 58.1705 18.7931Z" fill="black"/>
<path fill-rule="evenodd" clip-rule="evenodd" d="M95.7579 17.9561C94.171 16.3176 91.9978 15.3037 89.477 15.3037C84.1706 15.3037 80.4048 19.7965 80.4048 25.1514C80.4048 30.5063 84.1706 34.9991 89.477 34.9991C91.9978 34.9991 94.171 33.9854 95.7579 32.3468V34.4564H99.3248V15.8465H95.7579V17.9561ZM83.9717 25.1514C83.9717 21.5988 86.6918 18.7931 89.8648 18.7931C93.0376 18.7931 95.7579 21.5988 95.7579 25.1514C95.7579 28.7041 93.0376 31.5098 89.8648 31.5098C86.6918 31.5098 83.9717 28.7041 83.9717 25.1514Z" fill="black"/>
</g>
<defs>
<clipPath id="clip0_7295_442430">
<rect width="100" height="35" fill="white" transform="translate(0 6.95557)"/>
</clipPath>
</defs>
</svg>
