<svg width="59" height="49" viewBox="0 0 59 49" fill="none" xmlns="http://www.w3.org/2000/svg">
<g clip-path="url(#clip0_7295_442059)">
<path d="M58.1169 16.0198C58.4725 14.2927 58.2058 12.4767 57.3042 10.9527C56.2882 9.23833 54.6373 8.08268 52.6943 7.689C52.2498 7.6001 51.7799 7.5493 51.3354 7.5493H51.31C47.9828 7.5493 45.1889 9.93679 44.5286 13.2005C44.1349 15.1182 43.3729 16.9723 42.3062 18.6867C42.2454 18.7815 42.1604 18.8585 42.0601 18.9096C41.9598 18.9608 41.8476 18.9844 41.7352 18.9779C41.6227 18.9715 41.514 18.9352 41.4202 18.8729C41.3264 18.8105 41.2508 18.7244 41.2013 18.6232L34.2928 4.14586C33.4166 2.30444 31.8418 0.856707 29.8861 0.285233C26.5335 -0.705322 23.0792 0.971002 21.6569 3.96807L14.5198 18.9788C14.3293 19.3725 13.7705 19.3598 13.6055 18.9661V18.9534C13.0909 17.6677 12.202 16.5662 11.054 15.7918C9.9059 15.0174 8.55167 14.6057 7.16685 14.6102C6.25249 14.6102 5.35083 14.788 4.48727 15.1436C0.931431 16.6294 -0.655998 20.8202 0.817136 24.376C2.16327 27.589 4.37297 30.6242 7.24304 33.2402C7.44624 33.4307 7.50973 33.7228 7.39544 33.9768L5.08414 38.828C3.45862 42.2568 4.76666 46.4349 8.1447 48.1494C9.13526 48.6446 10.1893 48.8986 11.2815 48.8986C13.9483 48.8986 16.412 47.3493 17.555 44.9364L19.5488 40.7583C19.6758 40.4789 19.9933 40.3392 20.2854 40.4281C22.7109 41.0885 25.1492 41.4441 27.5494 41.4441C30.2544 41.4441 32.9213 41.0377 35.4993 40.2884C35.643 40.2462 35.7971 40.2562 35.9342 40.3166C36.0713 40.377 36.1827 40.484 36.2485 40.6186L38.2169 44.7586C39.3853 47.2223 41.8236 48.8986 44.5413 48.9113C45.6461 48.9113 46.7129 48.67 47.7161 48.1621C51.1069 46.4476 52.4022 42.2568 50.7767 38.8153L48.3003 33.6085C48.186 33.3545 48.2368 33.0624 48.44 32.8719C53.2404 28.4018 56.7835 22.5473 58.1169 16.0198ZM15.2818 43.8315C14.9217 44.5876 14.3549 45.2262 13.647 45.6735C12.939 46.1207 12.1189 46.3583 11.2815 46.3587C10.6211 46.3587 9.94802 46.2063 9.32575 45.9016C7.14145 44.8221 6.31599 42.1044 7.37004 39.9074L9.28765 35.8817C9.45274 35.5261 9.90992 35.3991 10.2147 35.6277C10.6211 35.9198 11.0402 36.1992 11.472 36.4786C13.161 37.558 14.9262 38.4724 16.7422 39.2217C17.0851 39.3614 17.2375 39.7423 17.0851 40.0725L15.2818 43.8315ZM27.5494 38.8915C17.3772 38.8915 6.63347 31.9957 3.07763 23.195C2.63844 22.1088 2.64857 20.8926 3.1058 19.8138C3.56302 18.735 4.42993 17.882 5.51592 17.4422C6.062 17.2263 6.62077 17.112 7.16685 17.112C8.91937 17.112 10.5703 18.1533 11.2688 19.8804C13.4912 25.392 20.9457 30.0527 27.5494 30.0527C28.5654 30.0527 29.5813 29.9511 30.5846 29.7733C30.864 29.7225 31.1434 29.8622 31.2704 30.1162L34.5976 37.1263C34.7627 37.4818 34.5722 37.9009 34.2039 38.0025C32.0323 38.574 29.8099 38.8915 27.5494 38.8915ZM26.1017 26.9794L27.6383 23.7538C27.7653 23.4998 28.1336 23.4998 28.2606 23.7538L29.7591 26.9032C29.8607 27.1064 29.721 27.3604 29.5051 27.3985C28.8575 27.4874 28.2098 27.5382 27.5748 27.5382C27.1811 27.5382 26.7875 27.5128 26.3938 27.4747C26.1271 27.4366 26.0001 27.1826 26.1017 26.9794ZM46.5478 45.8889C46.0216 46.1485 45.449 46.3009 44.8634 46.3372C44.2778 46.3735 43.6907 46.293 43.1365 46.1004C42.5823 45.9078 42.0719 45.6069 41.635 45.2152C41.1981 44.8235 40.8435 44.3489 40.5917 43.8189L28.54 18.4835C28.2987 17.9755 27.5748 17.9755 27.3462 18.4835L23.6126 26.3444C23.4729 26.6365 23.1427 26.7762 22.8379 26.6746C20.2981 25.7984 17.8852 24.3125 16.0945 22.5219C16.0034 22.4303 15.9434 22.3123 15.9229 22.1847C15.9024 22.0571 15.9224 21.9263 15.9802 21.8108L24.0571 4.81893C24.3365 4.22205 24.7683 3.68868 25.3143 3.32039C27.8542 1.65677 30.8259 2.69812 31.9307 5.02212L48.5035 39.882C49.5448 42.0917 48.7321 44.8094 46.5478 45.8889ZM43.0554 22.5727C43.0047 22.4666 42.9849 22.3484 42.9984 22.2316C43.0119 22.1147 43.0581 22.0041 43.1316 21.9123C45.0238 19.4868 46.4081 16.6548 47.0049 13.645C47.424 11.5496 49.2654 10.0892 51.3354 10.0892C51.691 10.0892 52.0466 10.1273 52.4149 10.2162C54.7643 10.8004 56.1231 13.2386 55.6279 15.6134C54.4595 21.1758 51.564 26.2175 47.6145 30.167C47.297 30.4845 46.7764 30.3956 46.5859 30.0019L43.0554 22.5727Z" fill="black"/>
</g>
<defs>
<clipPath id="clip0_7295_442059">
<rect width="58" height="48.9113" fill="white" transform="translate(0.269043)"/>
</clipPath>
</defs>
</svg>
