<svg width="148" height="43" viewBox="0 0 148 43" fill="none" xmlns="http://www.w3.org/2000/svg">
<path d="M135.936 24.1925L138.235 18.1654L140.531 24.1925H135.937H135.936ZM140.621 14.7431H135.847L129.175 31.0853H133.311L134.831 27.0972H141.636L143.156 31.0853H147.29L140.621 14.7431ZM106.95 28.2439C104.256 28.2439 102.075 25.8139 102.075 22.8154C102.075 19.8168 104.255 17.385 106.95 17.385C109.644 17.385 111.823 19.8164 111.823 22.8154C111.823 25.8144 109.639 28.2439 106.95 28.2439ZM106.95 14.1826C102.181 14.1826 98.3145 18.0478 98.3145 22.8149C98.3145 27.582 102.181 31.4452 106.95 31.4452C111.719 31.4452 115.584 27.582 115.584 22.8149C115.584 18.0478 111.716 14.1826 106.95 14.1826ZM72.881 28.2439C70.1915 28.2439 68.0096 25.8139 68.0096 22.8154C68.0096 19.8168 70.1915 17.385 72.881 17.385C75.5705 17.385 77.7557 19.8164 77.7557 22.8154C77.7557 25.8144 75.5738 28.2439 72.881 28.2439ZM72.881 14.1826C68.1134 14.1826 64.2506 18.0478 64.2506 22.8149C64.2506 27.582 68.1134 31.4452 72.881 31.4452C77.6485 31.4452 81.5147 27.582 81.5147 22.8149C81.5147 18.0478 77.6485 14.1826 72.881 14.1826ZM94.2207 14.7431L89.9903 21.3549L85.7565 14.7431H81.6194L88.1679 24.991V31.0848H91.8098V24.9925L98.3578 14.7431H94.2202H94.2207ZM130.046 14.7431H116.072V17.8769H121.248V31.0853H124.893V17.8769H130.046V14.7431ZM49.5137 17.8769H54.6912V31.0853H58.335V17.8769H63.4897V14.7431H49.5142V17.8769H49.5137Z" fill="black"/>
<path d="M39.7088 3.34619H0.489746V42.5652H39.7088V3.34619Z" fill="black"/>
<path d="M26.6399 14.4024C24.8199 13.8171 22.5547 13.4714 20.1 13.4714C17.6453 13.4714 15.3796 13.8171 13.5596 14.4024C8.71871 15.9585 5.39209 19.1909 5.39209 22.9256C5.39209 28.1803 11.9768 32.4407 20.1 32.4407C28.2232 32.4407 34.8065 28.1803 34.8065 22.9256C34.8065 19.1904 31.4803 15.9595 26.6399 14.4024ZM20.1 28.3498C18.8876 28.3498 17.8976 25.9665 17.8396 22.9718C18.5686 23.0375 19.3248 23.0727 20.1 23.0727C20.8752 23.0727 21.63 23.0375 22.36 22.9718C22.3014 25.9665 21.3119 28.3498 20.1 28.3498ZM17.9924 20.6271C18.3229 18.5247 19.1414 17.0357 20.1 17.0357C21.0586 17.0357 21.8762 18.5247 22.2062 20.6271C21.5328 20.688 20.8271 20.7218 20.1 20.7218C19.3729 20.7218 18.6667 20.688 17.9924 20.6271ZM23.4942 20.4685C23.0023 17.169 21.6685 14.8038 20.1 14.8038C18.5314 14.8038 17.1967 17.169 16.7048 20.4685C13.7172 20.0023 11.6292 18.9404 11.6292 17.7042C11.6292 16.0381 15.422 14.6871 20.1 14.6871C24.778 14.6871 28.5699 16.0381 28.5699 17.7042C28.5699 18.9409 26.4818 20.0023 23.4938 20.4685M7.53825 22.5775C7.53825 20.9666 8.15825 19.4571 9.23966 18.1585C9.22728 18.2485 9.22061 18.3395 9.22061 18.4309C9.22061 20.4571 12.2644 22.1794 16.5077 22.8127C16.5043 22.9656 16.5019 23.1189 16.5019 23.2742C16.5019 27.0417 17.5472 30.2326 18.9919 31.3331C12.573 30.9407 7.53825 27.1713 7.53825 22.5775ZM21.2071 31.3331C22.6514 30.2331 23.6961 27.0422 23.6961 23.2742C23.6961 23.1194 23.6947 22.9661 23.6909 22.8127C27.9332 22.1794 30.9775 20.4571 30.9775 18.4309C30.9775 18.3395 30.9703 18.249 30.958 18.1585C32.0394 19.4571 32.6594 20.9666 32.6594 22.5775C32.6594 27.1713 27.6251 30.9403 21.2071 31.3331Z" fill="white"/>
</svg>
